<svg width="328" height="1161" viewBox="0 0 328 1161" fill="none" xmlns="http://www.w3.org/2000/svg">
<path d="M12.5475 111.66C64.961 116.668 167.093 152.436 156.312 255.447C142.709 338.802 85.9144 362.282 59.2174 363.603C128.084 431.938 272.052 582.531 296.987 638.22C327.776 722.427 272.524 774.942 241.049 790.674C221.344 801.131 174.731 817.005 145.912 796.848C200.259 857.403 332.354 983.964 327.211 1043.38C297.421 1162.33 172.059 1153.92 165.032 1155.28C158.004 1156.65 -5.49999 1180.55 -5.49999 1113C-5.49999 1054.65 -6.17052 958.509 -5.49998 845.501C-4.82944 732.493 -5.49994 608.692 -5.49991 529.501L-5.4997 283C-5.49966 52.5829 -5.49972 125.952 -5.49973 125.952L-5.49972 110.929C-13.5349 109.612 -24.1662 106.768 -37.4999 101C-87.097 79.5434 -5.4996 -98.2203 -5.4997 77.0003L-5.49972 110.929C10.3757 113.532 16.1176 110.179 12.5475 111.66Z" fill="#FF500A"/>
<path d="M12.5475 111.66C64.961 116.668 167.093 152.436 156.312 255.447C142.709 338.802 85.9144 362.282 59.2174 363.603C128.084 431.938 272.052 582.531 296.987 638.22C327.776 722.427 272.524 774.942 241.049 790.674C221.344 801.131 174.731 817.005 145.912 796.848C200.259 857.403 332.354 983.964 327.211 1043.38C297.421 1162.33 172.059 1153.92 165.032 1155.28C158.004 1156.65 -5.49999 1180.55 -5.49999 1113C-5.49999 1054.65 -6.17052 958.509 -5.49998 845.501C-4.82944 732.493 -5.49994 608.692 -5.49991 529.501C-5.49987 435.168 -5.49971 404.741 -5.4997 283C-5.49965 -32.4644 -5.49979 221.5 -5.4997 77.0003C-5.4996 -98.2203 -87.097 79.5434 -37.4999 101C2.17775 118.165 17.9246 109.429 12.5475 111.66Z" stroke="#FF500A"/>
</svg>
