<svg width="822" height="791" viewBox="0 0 822 791" fill="none" xmlns="http://www.w3.org/2000/svg">
<path d="M2.03959 162.041C-6.36041 88.0407 38.2063 37.5407 61.5396 21.5407C57.2062 25.1192 76.5 40.7883 124.5 1C348.5 0.999958 576.373 17.5407 674.54 21.5407C859.54 21.5407 839.2 49.6838 836 148.084C832.8 246.484 821.5 496.457 821.5 619.041V743.533C783.362 774.067 735.731 794.807 674.54 789.541C526.94 729.141 576.04 606.374 619.04 552.541C586.706 571.708 484.14 611.841 332.54 619.041C180.94 626.241 159.04 521.041 167.04 467.541C167.873 435.041 202.14 347.141 332.54 255.541C232.54 275.541 141.54 271.207 108.54 266.541C79.8729 262.874 18.4396 236.841 2.03959 162.041Z" fill="#FF500A" stroke="#FF500A"/>
</svg>
